<?xml version="1.0" standalone="no"?>
<!DOCTYPE svg PUBLIC "-//W3C//DTD SVG 20010904//EN"
 "http://www.w3.org/TR/2001/REC-SVG-20010904/DTD/svg10.dtd">
<svg version="1.0" xmlns="http://www.w3.org/2000/svg"
 width="400.000000pt" height="400.000000pt" viewBox="0 0 400.000000 400.000000"
 preserveAspectRatio="xMidYMid meet">
<metadata>
Created by potrace 1.14, written by Peter Selinger 2001-2017
</metadata>
<g transform="translate(0.000000,400.000000) scale(0.100000,-0.100000)"
fill="#000000" stroke="none">
<path d="M0 2000 l0 -2000 2000 0 2000 0 0 2000 0 2000 -2000 0 -2000 0 0
-2000z m1690 1567 c72 -36 102 -59 198 -154 61 -62 112 -119 112 -126 0 -7 15
-43 34 -79 53 -104 74 -228 56 -331 -27 -151 -51 -231 -83 -280 -9 -14 -17
-33 -17 -42 0 -8 -4 -15 -10 -15 -5 0 -21 -20 -36 -45 -14 -25 -29 -45 -33
-45 -4 0 -14 -12 -21 -26 -8 -14 -40 -44 -72 -66 -32 -23 -58 -44 -58 -48 0
-11 -76 -50 -97 -50 -11 0 -23 -3 -27 -7 -13 -13 -100 -14 -146 -2 -68 19 -87
35 -121 105 -27 55 -31 71 -27 126 2 35 13 81 23 102 21 43 78 93 110 98 19 3
20 -2 16 -71 -3 -60 1 -82 19 -121 19 -40 30 -51 82 -74 78 -36 124 -30 210
28 95 64 167 421 113 561 -14 37 -56 130 -63 141 -51 80 -71 102 -162 185 -10
10 -40 29 -66 45 -27 15 -56 33 -64 40 -45 36 -295 63 -346 36 -11 -5 -48 -17
-84 -27 -36 -9 -77 -26 -92 -36 -14 -11 -29 -19 -34 -19 -4 0 -52 -30 -107
-67 -72 -47 -141 -107 -239 -206 -76 -77 -138 -144 -138 -149 0 -5 -13 -26
-29 -46 -16 -20 -32 -48 -36 -61 -4 -12 -17 -38 -29 -56 -13 -18 -29 -62 -36
-97 -7 -34 -23 -94 -35 -133 -28 -82 -36 -162 -39 -380 -3 -208 21 -392 70
-544 8 -24 13 -46 10 -48 -2 -3 6 -25 20 -50 13 -25 24 -54 24 -63 0 -9 11
-37 25 -61 14 -24 28 -51 31 -59 4 -8 14 -33 24 -55 10 -22 20 -47 24 -55 3
-8 35 -49 71 -90 35 -41 90 -108 120 -147 31 -40 66 -78 78 -84 12 -7 40 -27
63 -46 23 -18 48 -33 56 -33 8 0 26 -8 39 -18 65 -50 273 -101 354 -86 17 2
53 7 80 9 103 9 142 17 211 46 96 40 170 98 244 192 58 74 84 96 97 84 11 -11
-6 -52 -34 -83 -15 -16 -41 -49 -56 -73 -30 -44 -164 -181 -178 -181 -5 0 -32
-18 -61 -40 -29 -22 -64 -43 -78 -47 -14 -3 -38 -15 -55 -25 -16 -10 -42 -18
-57 -18 -14 0 -28 -5 -30 -11 -2 -6 -27 -12 -57 -14 -29 -1 -57 -7 -62 -12
-15 -15 -218 -4 -274 14 -68 22 -117 43 -135 58 -8 7 -26 16 -40 20 -28 8
-107 65 -161 115 -86 80 -121 116 -131 135 -6 11 -37 52 -68 90 -53 65 -98
139 -156 256 -42 84 -112 312 -134 439 -42 240 -33 551 24 790 37 155 56 214
74 232 7 7 12 18 12 25 0 7 11 31 25 53 14 22 25 44 25 50 0 5 8 18 18 28 9 9
34 42 55 72 79 116 108 150 213 252 196 190 226 218 236 218 6 0 37 18 68 39
72 49 213 121 238 121 10 0 22 4 27 8 22 19 106 35 205 39 57 2 106 5 108 7 9
9 96 -20 172 -57z m1438 39 c10 -9 24 -16 30 -16 7 0 12 -5 12 -11 0 -6 9 -9
20 -6 11 3 22 1 25 -3 3 -4 35 -22 73 -40 37 -17 78 -41 92 -54 14 -12 41 -30
61 -41 73 -37 114 -86 198 -234 28 -49 48 -103 62 -164 11 -49 24 -98 30 -108
20 -39 23 -241 5 -361 -17 -106 -40 -200 -56 -223 -3 -5 -12 -30 -19 -55 -33
-118 -141 -293 -250 -405 -37 -38 -78 -84 -89 -102 -20 -29 -21 -33 -6 -47 8
-9 21 -16 28 -16 13 0 64 -41 113 -92 13 -12 32 -41 43 -63 11 -22 29 -54 40
-70 11 -17 26 -73 35 -125 14 -91 14 -99 -7 -195 -12 -55 -27 -107 -33 -115
-7 -8 -21 -37 -31 -65 -12 -31 -46 -80 -90 -130 -151 -170 -235 -208 -344
-158 -58 27 -73 40 -106 88 -28 39 -34 88 -19 139 20 64 75 165 113 204 29 32
35 34 43 20 5 -10 5 -26 0 -40 -5 -13 -12 -51 -16 -85 l-7 -62 54 -55 c38 -39
62 -56 80 -56 14 0 39 -3 55 -6 64 -13 139 92 168 233 24 119 7 217 -61 348
-37 73 -63 97 -150 140 -56 28 -194 46 -216 28 -7 -6 -28 -13 -47 -17 -19 -3
-43 -13 -52 -22 -25 -23 -49 -11 -49 24 0 82 98 179 180 179 25 -1 78 9 119
22 65 20 82 31 141 89 129 129 190 222 252 387 43 117 57 185 64 320 5 100 3
137 -15 223 -22 103 -29 126 -70 230 -22 55 -75 138 -120 185 -48 52 -185 150
-271 195 -71 37 -99 45 -185 56 -102 13 -139 14 -165 3 -8 -3 -35 -8 -60 -12
-25 -3 -58 -12 -74 -20 -16 -8 -33 -15 -39 -15 -18 0 -172 -106 -219 -153 -26
-25 -58 -67 -71 -94 -13 -26 -37 -73 -54 -103 -35 -66 -76 -182 -94 -265 -18
-82 -12 -242 13 -335 21 -81 59 -127 125 -155 29 -12 31 -15 23 -47 -17 -64
-23 -83 -33 -95 -5 -7 -6 -13 -1 -13 4 0 -3 -11 -15 -24 -20 -22 -26 -23 -50
-13 -69 30 -132 111 -155 200 -8 29 -19 65 -26 82 -20 51 -9 208 22 330 49
189 48 188 120 330 104 203 175 294 311 396 176 132 263 160 480 155 92 -3
121 -7 135 -20z m-245 -617 c11 -18 -52 -94 -139 -169 -32 -28 -64 -73 -64
-91 0 -7 -6 -20 -14 -28 -50 -58 -92 -401 -66 -541 6 -36 16 -99 21 -140 4
-41 16 -100 25 -130 9 -30 21 -77 26 -105 28 -143 93 -363 128 -435 28 -56 26
-286 -2 -415 -21 -94 -26 -105 -85 -180 -96 -123 -210 -233 -271 -262 -75 -36
-137 -29 -271 28 -57 24 -106 51 -109 59 -3 8 -14 24 -24 34 -10 11 -18 27
-18 35 0 9 -11 46 -24 83 -21 60 -22 76 -15 155 9 96 22 158 45 216 42 109
161 241 242 268 46 16 50 15 95 -4 26 -11 49 -28 52 -37 9 -29 -64 -148 -106
-170 -16 -9 -21 -7 -28 13 -10 25 -53 46 -83 40 -68 -15 -98 -253 -48 -385 31
-84 73 -125 155 -154 109 -38 155 -41 211 -13 52 25 66 36 109 93 44 57 56 99
61 216 6 107 -12 233 -49 355 -54 178 -132 503 -152 635 -30 197 -18 461 26
594 44 133 97 222 193 323 88 93 141 136 160 130 5 -2 14 -10 19 -18z"/>
</g>
</svg>
